<svg width="40.000000" height="40.000000" viewBox="0 0 40 40" fill="none" xmlns="http://www.w3.org/2000/svg" xmlns:xlink="http://www.w3.org/1999/xlink">
	<desc>
			Created with Pixso.
	</desc>
	<defs>
		<clipPath id="clip101_352">
			<rect id="social / vk_color" width="40.000000" height="40.000000" fill="white" fill-opacity="0"/>
		</clipPath>
	</defs>
	<rect id="social / vk_color" width="40.000000" height="40.000000" fill="#FFFFFF" fill-opacity="0"/>
	<g clip-path="url(#clip101_352)">
		<circle id="Ellipse" cx="20.000000" cy="20.000000" r="14.000000" fill="#4D76A1" fill-opacity="1.000000"/>
		<path id="Vector" d="M19.3174 24.9624L20.3336 24.9624C20.3336 24.9624 20.6405 24.9312 20.7972 24.7744C20.9415 24.6304 20.9369 24.3599 20.9369 24.3599C20.9369 24.3599 20.917 23.0947 21.5498 22.9082C22.1736 22.7251 22.9747 24.1313 23.8238 24.6719C24.4658 25.0815 24.9537 24.9917 24.9537 24.9917L27.224 24.9624C27.224 24.9624 28.4116 24.8945 27.8484 24.0278C27.8023 23.957 27.5205 23.3867 26.1605 22.2153C24.737 20.9893 24.9276 21.1875 26.6424 19.0664C27.6867 17.7749 28.1042 16.9863 27.9738 16.6484C27.8494 16.3271 27.0813 16.4121 27.0813 16.4121L24.5251 16.4268C24.5251 16.4268 24.3357 16.4028 24.1951 16.481C24.0578 16.5571 23.9694 16.7354 23.9694 16.7354C23.9694 16.7354 23.5648 17.7349 23.0252 18.585C21.887 20.3784 21.4319 20.4731 21.2459 20.3618C20.8132 20.1025 20.9212 19.3193 20.9212 18.7627C20.9212 17.0244 21.2053 16.2998 20.368 16.1123C20.0901 16.0498 19.8856 16.0088 19.175 16.002C18.263 15.9932 17.491 16.0044 17.0539 16.2031C16.7631 16.3354 16.5388 16.6299 16.6754 16.647C16.8443 16.668 17.227 16.7427 17.4298 16.999C17.6918 17.3296 17.6825 18.0723 17.6825 18.0723C17.6825 18.0723 17.833 20.1187 17.3311 20.373C16.9865 20.5474 16.5138 20.1914 15.4991 18.564C14.9791 17.7305 14.5865 16.8091 14.5865 16.8091C14.5865 16.8091 14.5108 16.6367 14.3758 16.5449C14.212 16.4331 13.983 16.3975 13.983 16.3975L11.554 16.4126C11.554 16.4126 11.1894 16.4219 11.0555 16.5688C10.9364 16.6997 11.046 16.9707 11.046 16.9707C11.046 16.9707 12.9477 21.0991 15.101 23.1802C17.0753 25.0874 19.3174 24.9624 19.3174 24.9624Z" fill="#FFFFFF" fill-opacity="1.000000" fill-rule="evenodd"/>
	</g>
</svg>
