<svg width="40.000000" height="40.000000" viewBox="0 0 40 40" fill="none" xmlns="http://www.w3.org/2000/svg" xmlns:xlink="http://www.w3.org/1999/xlink">
	<desc>
			Created with Pixso.
	</desc>
	<defs>
		<clipPath id="clip339_1379">
			<rect id="social / viber_color" width="40.000000" height="40.000000" fill="white" fill-opacity="0"/>
		</clipPath>
	</defs>
	<rect id="social / viber_color" width="40.000000" height="40.000000" fill="#FFFFFF" fill-opacity="0"/>
	<g clip-path="url(#clip339_1379)">
		<path id="Rectangle 12" d="M15 8L25 8C29.9706 8 34 12.0293 34 17L34 22C34 26.9707 29.9706 31 25 31L23.5 31L21 31L17 35L17 31L16 31L15 31C10.0294 31 6 26.9707 6 22L6 17C6 12.0293 10.0294 8 15 8Z" fill="#7D3DAF" fill-opacity="1.000000" fill-rule="nonzero"/>
		<path id="Union" d="M20.2236 13C21.957 13.2417 23.5273 14.0254 24.7684 15.2666C25.9454 16.4463 26.7174 17.9321 27 19.5693L25.925 19.7529C25.6832 18.3398 25.016 17.0552 23.9993 16.0386C22.9271 14.9692 21.5695 14.2905 20.0721 14.0811L20.2236 13ZM23.6439 22.2612C23.1865 21.8096 22.6155 21.8096 22.1609 22.2612C21.8143 22.605 21.4676 22.9487 21.1267 23.2983C21.0335 23.3945 20.9548 23.415 20.8412 23.3511C20.7523 23.3022 20.6611 23.2573 20.57 23.2129C20.4312 23.1445 20.2926 23.0762 20.1624 22.9956C19.1573 22.3633 18.3154 21.5503 17.5695 20.6357C17.1995 20.1812 16.8703 19.6948 16.6402 19.147C16.5936 19.0361 16.6023 18.9634 16.6926 18.873C16.9896 18.5859 17.2802 18.293 17.5717 17.9985L17.7181 17.8506C18.193 17.373 18.193 16.8135 17.7152 16.333C17.5797 16.1958 17.4443 16.0605 17.3088 15.9248C17.1733 15.7896 17.0378 15.6538 16.9023 15.5171C16.8091 15.4238 16.7163 15.3306 16.6235 15.2368C16.4376 15.0498 16.2518 14.8628 16.0633 14.6782C15.606 14.2324 15.0349 14.2324 14.5804 14.6812C14.5318 14.729 14.4835 14.7769 14.4353 14.8247C14.345 14.915 14.2554 15.0054 14.1659 15.0962L14.1644 15.0977C13.9587 15.3052 13.7532 15.5127 13.5403 15.7153C13.2112 16.0269 13.0451 16.4087 13.0101 16.8545C12.9548 17.5796 13.1325 18.2642 13.3831 18.9316C13.8958 20.3125 14.6766 21.5386 15.6234 22.6631C16.9023 24.1841 18.429 25.3872 20.2148 26.2554C21.0189 26.6455 21.8522 26.9458 22.7582 26.9951C23.3817 27.0303 23.9235 26.873 24.3576 26.3862C24.553 26.168 24.7646 25.9624 24.9762 25.7568C25.0864 25.6499 25.1967 25.5425 25.3044 25.4336C25.7706 24.9619 25.7735 24.3911 25.3103 23.9248C24.7595 23.3711 24.2056 22.8203 23.6519 22.2695L23.6439 22.2612ZM24.1624 19.7559L23.0874 19.9395C22.9563 19.1763 22.598 18.4829 22.0502 17.9351C21.4705 17.3555 20.7363 16.9912 19.9293 16.8774L20.0809 15.7969C21.1238 15.9424 22.0706 16.4146 22.8194 17.1631C23.5273 17.874 23.9935 18.7681 24.1624 19.7559Z" fill="#FFFFFF" fill-opacity="1.000000" fill-rule="evenodd"/>
	</g>
</svg>
