<svg width="40.000000" height="40.000000" viewBox="0 0 40 40" fill="none" xmlns="http://www.w3.org/2000/svg" xmlns:xlink="http://www.w3.org/1999/xlink">
	<desc>
			Created with Pixso.
	</desc>
	<defs>
		<clipPath id="clip101_353">
			<rect id="social / insta_color" width="40.000000" height="40.000000" fill="white" fill-opacity="0"/>
		</clipPath>
		<radialGradient id="paint_radial_43_36_0" cx="0.000000" cy="0.000000" r="1.000000" gradientUnits="userSpaceOnUse" gradientTransform="translate(6 34) rotate(-45) scale(39.598 39.598)">
			<stop offset="0.086406" stop-color="#FCB045"/>
			<stop offset="0.501152" stop-color="#FD1D1D"/>
			<stop offset="0.998848" stop-color="#833AB4"/>
		</radialGradient>
	</defs>
	<rect id="social / insta_color" width="40.000000" height="40.000000" fill="#FFFFFF" fill-opacity="0"/>
	<g clip-path="url(#clip101_353)">
		<circle id="Ellipse" cx="20.000000" cy="20.000000" r="14.000000" fill="url(#paint_radial_43_36_0)" fill-opacity="1.000000"/>
		<path id="Union" d="M12 17C12 14.2388 14.2386 12 17 12L23 12C25.7614 12 28 14.2388 28 17L28 23C28 25.7612 25.7614 28 23 28L17 28C14.2386 28 12 25.7612 12 23L12 17ZM17 13L23 13C25.2091 13 27 14.791 27 17L27 23C27 25.209 25.2091 27 23 27L17 27C14.7909 27 13 25.209 13 23L13 17C13 14.791 14.7909 13 17 13ZM24 15C23.4477 15 23 15.4478 23 16C23 16.5522 23.4477 17 24 17C24.5523 17 25 16.5522 25 16C25 15.4478 24.5523 15 24 15ZM20 16C17.7909 16 16 17.791 16 20C16 22.209 17.7909 24 20 24C22.2091 24 24 22.209 24 20C24 17.791 22.2091 16 20 16ZM17 20C17 21.6567 18.3431 23 20 23C21.6569 23 23 21.6567 23 20C23 18.3433 21.6569 17 20 17C18.3431 17 17 18.3433 17 20Z" fill="#FFFFFF" fill-opacity="1.000000" fill-rule="evenodd"/>
	</g>
</svg>
