<svg width="40.000000" height="40.000000" viewBox="0 0 40 40" fill="none" xmlns="http://www.w3.org/2000/svg" xmlns:xlink="http://www.w3.org/1999/xlink">
	<desc>
			Created with Pixso.
	</desc>
	<defs>
		<clipPath id="clip101_355">
			<rect id="social / whatsapp_color" width="40.000000" height="40.000000" fill="white" fill-opacity="0"/>
		</clipPath>
	</defs>
	<rect id="social / whatsapp_color" width="40.000000" height="40.000000" fill="#FFFFFF" fill-opacity="0"/>
	<g clip-path="url(#clip101_355)">
		<path id="Union" d="M20 34C27.732 34 34 27.7319 34 20C34 12.2681 27.732 6 20 6C12.268 6 6 12.2681 6 20C6 22.6104 6.71442 25.0537 7.95837 27.1455L6 34L12.8543 32.0415C14.9461 33.2856 17.3896 34 20 34Z" fill="#55CD6C" fill-opacity="1.000000" fill-rule="nonzero"/>
		<path id="Union" d="M24.9333 21.1323C24.4634 20.6685 23.8769 20.6685 23.41 21.1323C23.0539 21.4854 22.6978 21.8389 22.3477 22.1978C22.2519 22.2964 22.1711 22.3174 22.0544 22.2515C21.9631 22.2017 21.8694 22.1558 21.7758 22.1099C21.6332 22.0396 21.4908 21.9697 21.3571 21.8867C20.3247 21.2373 19.4598 20.4023 18.6938 19.4624C18.3137 18.9956 17.9756 18.4961 17.7392 17.9336C17.6913 17.8198 17.7002 17.7451 17.793 17.6523C18.0981 17.3574 18.3965 17.0562 18.696 16.7534L18.8464 16.6021C19.3342 16.1108 19.3342 15.5366 18.8434 15.043C18.7042 14.9019 18.5651 14.7632 18.4259 14.624C18.2868 14.4849 18.1476 14.3457 18.0085 14.2051C17.9128 14.1089 17.8174 14.0132 17.722 13.917C17.5311 13.7246 17.3402 13.5327 17.1466 13.3428C16.6768 12.8853 16.0902 12.8853 15.6234 13.3462C15.5735 13.395 15.5238 13.4443 15.4743 13.4937C15.3816 13.5864 15.2896 13.6792 15.1976 13.7725L15.196 13.7739C14.9848 13.9873 14.7737 14.2007 14.5551 14.4082C14.2169 14.7285 14.0464 15.1206 14.0104 15.5786C13.9536 16.3237 14.1361 17.0269 14.3935 17.7119C14.9202 19.1304 15.7222 20.3901 16.6948 21.5454C18.0085 23.1074 19.5766 24.3433 21.411 25.2354C22.2369 25.6362 23.0928 25.9443 24.0235 25.9951C24.6639 26.0312 25.2205 25.8696 25.6664 25.3696C25.8671 25.1455 26.0845 24.9341 26.3018 24.7231C26.415 24.6128 26.5283 24.5029 26.639 24.3911C27.1178 23.9062 27.1208 23.3198 26.645 22.8413C26.0792 22.2725 25.5103 21.7065 24.9415 21.1406L24.9333 21.1323Z" fill="#FFFFFF" fill-opacity="1.000000" fill-rule="nonzero"/>
	</g>
</svg>
