<svg width="11.000000" height="11.000000" viewBox="0 0 11 11" fill="none" xmlns="http://www.w3.org/2000/svg"
	xmlns:xlink="http://www.w3.org/1999/xlink">
	<desc>
		Created with Pixso.
	</desc>
	<defs />
	<path id="Union-1"
		d="M6 2.5C6 2.22388 5.77612 2 5.5 2L5.5 2C5.22388 2 5 2.22388 5 2.5L5 5L2.5 5C2.22388 5 2 5.22388 2 5.5L2 5.5C2 5.77612 2.22388 6 2.5 6L5 6L5 8.5C5 8.77612 5.22388 9 5.5 9L5.5 9C5.77612 9 6 8.77612 6 8.5L6 6L8.5 6C8.77612 6 9 5.77612 9 5.5L9 5.5C9 5.22388 8.77612 5 8.5 5L6 5L6 2.5Z"
		fill="#b04122" fill-opacity="1.000000" fill-rule="nonzero" />
	<path id="Union-2"
		d="M3.05145 1.99249C3.01715 2.15808 3 2.32727 3 2.5L3 3L2.5 3C2.32727 3 2.15808 3.01715 1.99249 3.05145C1.8338 3.08435 1.67841 3.13293 1.52625 3.19727C1.37848 3.25983 1.23907 3.33496 1.10815 3.42267C0.973999 3.51263 0.848694 3.61578 0.732239 3.73224C0.615784 3.84869 0.512634 3.974 0.422668 4.10815C0.334961 4.23907 0.259827 4.37848 0.197266 4.52625C0.132935 4.67841 0.0843506 4.8338 0.0514526 4.99249C0.0171509 5.15808 0 5.32727 0 5.5C0 5.67273 0.0171509 5.84192 0.0514526 6.00751C0.0843506 6.1662 0.132935 6.32159 0.197266 6.47375C0.259827 6.62152 0.334961 6.76093 0.422668 6.89185C0.512634 7.026 0.615784 7.15137 0.732239 7.26776C0.848694 7.38422 0.973999 7.48737 1.10815 7.57733C1.23907 7.66504 1.37848 7.74017 1.52625 7.80273C1.67841 7.86707 1.8338 7.91565 1.99249 7.94855C2.15808 7.98285 2.32727 8 2.5 8L3 8L3 8.5C3 8.67273 3.01715 8.84192 3.05145 9.00751C3.08435 9.1662 3.13293 9.32159 3.19727 9.47375C3.25983 9.62152 3.33496 9.76093 3.42267 9.89185C3.51263 10.026 3.61578 10.1513 3.73224 10.2678C3.84869 10.3842 3.974 10.4874 4.10815 10.5773C4.23907 10.665 4.37848 10.7402 4.52625 10.8027C4.67841 10.8671 4.8338 10.9156 4.99249 10.9485C5.15808 10.9828 5.32727 11 5.5 11C5.67273 11 5.84192 10.9828 6.00751 10.9485C6.1662 10.9156 6.32159 10.8671 6.47375 10.8027C6.62152 10.7402 6.76093 10.6651 6.89178 10.5773C7.026 10.4874 7.15131 10.3842 7.26776 10.2678C7.38422 10.1513 7.48737 10.026 7.57733 9.89185C7.66504 9.76093 7.74017 9.62152 7.80273 9.47375C7.86707 9.32159 7.91565 9.1662 7.94855 9.00751C7.98285 8.84192 8 8.67273 8 8.5L8 8L8.5 8C8.67273 8 8.84192 7.98285 9.00751 7.94855C9.1662 7.91565 9.32159 7.86707 9.47375 7.80273C9.62152 7.74017 9.76093 7.66504 9.89185 7.57733C10.026 7.48737 10.1513 7.38422 10.2678 7.26776C10.3842 7.15131 10.4874 7.026 10.5773 6.89185C10.665 6.76093 10.7402 6.62152 10.8027 6.47375C10.8671 6.32159 10.9156 6.1662 10.9485 6.00751C10.9828 5.84192 11 5.67273 11 5.5C11 5.32727 10.9828 5.15808 10.9485 4.99249C10.9156 4.8338 10.8671 4.67841 10.8027 4.52625C10.7402 4.37848 10.665 4.23907 10.5773 4.10815C10.4874 3.974 10.3842 3.84869 10.2678 3.73224C10.1513 3.61578 10.026 3.51263 9.89185 3.42267C9.76093 3.33496 9.62152 3.25983 9.47375 3.19727C9.32159 3.13293 9.1662 3.08435 9.00751 3.05145C8.84192 3.01715 8.67273 3 8.5 3L8 3L8 2.5C8 2.32727 7.98285 2.15808 7.94855 1.99243C7.91565 1.8338 7.86707 1.67841 7.80273 1.52625C7.74017 1.37848 7.6651 1.23907 7.57733 1.10822C7.48743 0.973999 7.38422 0.848694 7.26776 0.732239C7.15131 0.615784 7.026 0.512634 6.89185 0.422668C6.76093 0.334961 6.62152 0.259827 6.47375 0.197266C6.32159 0.132935 6.1662 0.0843506 6.00751 0.0514526C5.84192 0.0171509 5.67273 0 5.5 0C5.32727 0 5.15808 0.0171509 4.99249 0.0514526C4.8338 0.0843506 4.67841 0.132935 4.52625 0.197266C4.37848 0.259827 4.23907 0.334961 4.10815 0.422668C3.974 0.512634 3.84869 0.615784 3.73224 0.732239C3.61578 0.848694 3.51263 0.973999 3.42267 1.10815C3.33496 1.23907 3.25983 1.37848 3.19727 1.52625C3.13293 1.67841 3.08435 1.8338 3.05145 1.99249ZM6 3L6 2.5C6 2.22388 5.77612 2 5.5 2C5.22388 2 5 2.22388 5 2.5L5 5L2.5 5C2.22388 5 2 5.22388 2 5.5C2 5.77612 2.22388 6 2.5 6L5 6L5 8.5C5 8.77612 5.22388 9 5.5 9C5.77612 9 6 8.77612 6 8.5L6 6L8.5 6C8.77612 6 9 5.77612 9 5.5C9 5.22388 8.77612 5 8.5 5L6 5L6 3Z"
		fill="#ffffff" fill-opacity="1.000000" fill-rule="evenodd" />
</svg>