<svg width="26.000000" height="20.000000" viewBox="0 0 26 20" fill="none" xmlns="http://www.w3.org/2000/svg"
	xmlns:xlink="http://www.w3.org/1999/xlink">
	<desc>
		Created with Pixso.
	</desc>
	<defs />
	<path id="Vector"
		d="M0 1.5C0 1.22388 0.223877 1 0.5 1L3.5 1C3.72943 1 3.92944 1.15613 3.98505 1.37878L4.89038 5L21.5 5C21.6591 5 21.8087 5.07568 21.9028 5.20386C21.9971 5.33203 22.0247 5.49731 21.9772 5.64917L19.4772 13.6492C19.412 13.8579 19.2187 14 19 14L6.5 14C6.27057 14 6.07056 13.8439 6.01495 13.6212L3.10962 2L0.5 2C0.223877 2 0 1.77612 0 1.5ZM5.14038 6L6.89038 13L18.6324 13L20.8199 6L5.14038 6ZM8.5 20C9.88074 20 11 18.8807 11 17.5C11 16.1193 9.88074 15 8.5 15C7.11926 15 6 16.1193 6 17.5C6 18.8807 7.11926 20 8.5 20ZM19 17.5C19 18.8807 17.8807 20 16.5 20C15.1193 20 14 18.8807 14 17.5C14 16.1193 15.1193 15 16.5 15C17.8807 15 19 16.1193 19 17.5ZM8.5 19C9.32843 19 10 18.3284 10 17.5C10 16.6716 9.32843 16 8.5 16C7.67157 16 7 16.6716 7 17.5C7 18.3284 7.67157 19 8.5 19ZM18 17.5C18 18.3284 17.3284 19 16.5 19C15.6716 19 15 18.3284 15 17.5C15 16.6716 15.6716 16 16.5 16C17.3284 16 18 16.6716 18 17.5Z"
		fill="#F04716" fill-opacity="1.000000" fill-rule="evenodd" />
</svg>