<svg width="26.000000" height="20.000000" viewBox="0 0 26 20" fill="none" xmlns="http://www.w3.org/2000/svg" xmlns:xlink="http://www.w3.org/1999/xlink">
	<desc>
			Created with Pixso.
	</desc>
	<defs/>
	<path id="Vector" d="M0 1.5C0 1.22388 0.223877 1 0.5 1L3.5 1C3.72943 1 3.92944 1.15613 3.98505 1.37878L4.89038 5L21.5 5C21.6591 5 21.8087 5.07568 21.9028 5.20386C21.9971 5.33203 22.0247 5.49731 21.9772 5.64917L19.4772 13.6492C19.412 13.8579 19.2187 14 19 14L6.5 14C6.27057 14 6.07056 13.8439 6.01495 13.6212L3.10962 2L0.5 2C0.223877 2 0 1.77612 0 1.5ZM5.14038 6L6.89038 13L18.6324 13L20.8199 6L5.14038 6ZM8.5 20C9.88074 20 11 18.8807 11 17.5C11 16.1193 9.88074 15 8.5 15C7.11926 15 6 16.1193 6 17.5C6 18.8807 7.11926 20 8.5 20ZM19 17.5C19 18.8807 17.8807 20 16.5 20C15.1193 20 14 18.8807 14 17.5C14 16.1193 15.1193 15 16.5 15C17.8807 15 19 16.1193 19 17.5ZM8.5 19C9.32843 19 10 18.3284 10 17.5C10 16.6716 9.32843 16 8.5 16C7.67157 16 7 16.6716 7 17.5C7 18.3284 7.67157 19 8.5 19ZM18 17.5C18 18.3284 17.3284 19 16.5 19C15.6716 19 15 18.3284 15 17.5C15 16.6716 15.6716 16 16.5 16C17.3284 16 18 16.6716 18 17.5Z" fill="#F04716" fill-opacity="1.000000" fill-rule="evenodd"/>
	<path id="Union" d="M21 2.5C21 2.22388 20.7761 2 20.5 2L20.5 2C20.2239 2 20 2.22388 20 2.5L20 5L17.5 5C17.2239 5 17 5.22388 17 5.5L17 5.5C17 5.77612 17.2239 6 17.5 6L20 6L20 8.5C20 8.77612 20.2239 9 20.5 9L20.5 9C20.7761 9 21 8.77612 21 8.5L21 6L23.5 6C23.7761 6 24 5.77612 24 5.5L24 5.5C24 5.22388 23.7761 5 23.5 5L21 5L21 2.5Z" fill="#F04716" fill-opacity="1.000000" fill-rule="nonzero"/>
	<path id="Union" d="M18.0515 1.99243Q18 2.24097 18 2.5L18 3L17.5 3Q17.2409 3 16.9925 3.05151Q16.7545 3.10071 16.5262 3.19727Q16.3046 3.29102 16.1082 3.42273Q15.9069 3.55762 15.7322 3.73218Q15.5576 3.90686 15.4227 4.10815Q15.2911 4.30457 15.1973 4.52625Q15.1008 4.75452 15.0515 4.99243Q15 5.24097 15 5.5Q15 5.75903 15.0515 6.00757Q15.1008 6.24548 15.1973 6.47375Q15.2911 6.69543 15.4227 6.89185Q15.5576 7.09314 15.7322 7.26782Q15.9069 7.44238 16.1082 7.57727Q16.3046 7.70898 16.5262 7.80273Q16.7545 7.89929 16.9925 7.94849Q17.2409 8 17.5 8L18 8L18 8.5Q18 8.75903 18.0515 9.00757Q18.1008 9.24548 18.1973 9.47375Q18.2911 9.69543 18.4227 9.89185Q18.5576 10.0931 18.7322 10.2678Q18.9069 10.4424 19.1082 10.5773Q19.3046 10.709 19.5262 10.8027Q19.7545 10.8993 19.9925 10.9485Q20.2409 11 20.5 11Q20.7591 11 21.0075 10.9485Q21.2455 10.8993 21.4738 10.8027Q21.6954 10.709 21.8918 10.5774Q22.0931 10.4424 22.2678 10.2678Q22.4424 10.0931 22.5773 9.89185Q22.7089 9.69543 22.8027 9.47375Q22.8992 9.24548 22.9485 9.00757Q23 8.75903 23 8.5L23 8L23.5 8Q23.7591 8 24.0075 7.94849Q24.2455 7.89929 24.4738 7.80273Q24.6954 7.70898 24.8918 7.57727Q25.0931 7.44238 25.2678 7.26782Q25.4424 7.09314 25.5773 6.89185Q25.7089 6.69543 25.8027 6.47375Q25.8992 6.24548 25.9485 6.00757Q26 5.75903 26 5.5Q26 5.24097 25.9485 4.99243Q25.8992 4.75452 25.8027 4.52625Q25.7089 4.30457 25.5773 4.10815Q25.4424 3.90686 25.2678 3.73218Q25.0931 3.55762 24.8918 3.42273Q24.6954 3.29102 24.4738 3.19727Q24.2455 3.10071 24.0075 3.05151Q23.7591 3 23.5 3L23 3L23 2.5Q23 2.24084 22.9485 1.99243Q22.8992 1.75452 22.8027 1.52625Q22.7089 1.30457 22.5773 1.10815Q22.4424 0.90686 22.2678 0.732178Q22.0931 0.557617 21.8918 0.422729Q21.6954 0.291016 21.4738 0.197266Q21.2455 0.100708 21.0075 0.0515137Q20.7591 0 20.5 0Q20.2409 0 19.9925 0.0515137Q19.7545 0.100708 19.5262 0.197266Q19.3046 0.291016 19.1082 0.422729Q18.9069 0.557617 18.7322 0.732178Q18.5576 0.90686 18.4227 1.10815Q18.2911 1.30457 18.1973 1.52625Q18.1008 1.75452 18.0515 1.99243ZM21 3L21 2.5C21 2.22388 20.7761 2 20.5 2C20.2239 2 20 2.22388 20 2.5L20 5L17.5 5C17.2239 5 17 5.22388 17 5.5C17 5.77612 17.2239 6 17.5 6L20 6L20 8.5C20 8.77612 20.2239 9 20.5 9C20.7761 9 21 8.77612 21 8.5L21 6L23.5 6C23.7761 6 24 5.77612 24 5.5C24 5.22388 23.7761 5 23.5 5L21 5L21 3Z" fill="#FFFFFF" fill-opacity="1.000000" fill-rule="evenodd"/>
</svg>
