<svg xmlns="http://www.w3.org/2000/svg" width="22" height="19" viewBox="0 0 22 19" fill="none">
  <path fill-rule="evenodd" clip-rule="evenodd"
    d="M0 0.5C0 0.223858 0.223858 0 0.5 0H3.5C3.72943 0 3.92943 0.156149 3.98507 0.378732L4.89039 4H21.5C21.6591 4 21.8086 4.07568 21.9028 4.20383C21.9971 4.33198 22.0247 4.49732 21.9772 4.64914L19.4772 12.6491C19.412 12.8579 19.2187 13 19 13H6.5C6.27057 13 6.07057 12.8439 6.01493 12.6213L3.10961 1H0.5C0.223858 1 0 0.776142 0 0.5ZM5.14039 5L6.89039 12H18.6324L20.8199 5H5.14039Z"
    fill="#6E7284" />
  <path fill-rule="evenodd" clip-rule="evenodd"
    d="M8.5 18C9.32843 18 10 17.3284 10 16.5C10 15.6716 9.32843 15 8.5 15C7.67157 15 7 15.6716 7 16.5C7 17.3284 7.67157 18 8.5 18ZM8.5 19C9.88071 19 11 17.8807 11 16.5C11 15.1193 9.88071 14 8.5 14C7.11929 14 6 15.1193 6 16.5C6 17.8807 7.11929 19 8.5 19Z"
    fill="#6E7284" />
  <path fill-rule="evenodd" clip-rule="evenodd"
    d="M16.5 18C17.3284 18 18 17.3284 18 16.5C18 15.6716 17.3284 15 16.5 15C15.6716 15 15 15.6716 15 16.5C15 17.3284 15.6716 18 16.5 18ZM16.5 19C17.8807 19 19 17.8807 19 16.5C19 15.1193 17.8807 14 16.5 14C15.1193 14 14 15.1193 14 16.5C14 17.8807 15.1193 19 16.5 19Z"
    fill="#6E7284" />
</svg>