<svg width="22.000000" height="22.000000" viewBox="0 0 22 22" fill="none" xmlns="http://www.w3.org/2000/svg" xmlns:xlink="http://www.w3.org/1999/xlink">
	<desc>
			Created with Pixso.
	</desc>
	<defs/>
	<path id="Vector" d="M21.9757 5.44165C21.9757 5.4184 21.9757 5.4184 21.9757 5.39514C21.9514 5.34863 21.9514 5.30212 21.9271 5.25562L21.9271 5.23236C21.9028 5.18585 21.8542 5.13934 21.8301 5.11609L21.8058 5.09283C21.7815 5.06958 21.7329 5.04633 21.7086 5.02307L21.6843 4.99976L21.66 4.99976L21.6357 4.9765L11.3157 0.0697632C11.1215 -0.0232544 10.8785 -0.0232544 10.66 0.0697632L7.18762 1.72089L17.5563 6.81366L17.5806 6.83691C17.6049 6.83691 17.6049 6.86017 17.6292 6.86017C17.6534 6.88342 17.6534 6.90668 17.6777 6.92993C17.6777 6.95319 17.6777 6.95319 17.6777 6.97644L17.6777 6.99969L17.6777 12.3948C17.6777 12.4879 17.6292 12.5576 17.5563 12.6041L15.468 13.6506C15.3466 13.7203 15.2009 13.6738 15.1281 13.5576C15.1038 13.5343 15.1038 13.4878 15.1038 13.4413L15.1038 8.16241L4.61365 2.97662L4.58936 2.95337L0.38855 4.95325L0.364258 4.9765L0.339966 4.9765L0.315674 4.99976C0.291382 5.02307 0.242798 5.04626 0.218506 5.06958L0.194214 5.09283C0.145752 5.13934 0.12146 5.18585 0.072876 5.23236L0.072876 5.25562C0.048584 5.30212 0.024292 5.34863 0.024292 5.39514C0.024292 5.4184 0.024292 5.4184 0.024292 5.44165C0.024292 5.48816 0 5.51141 0 5.55792L0 5.58118L0 16.4179C0 16.6737 0.145752 16.9295 0.412842 17.0458L10.6357 21.9293C10.7815 21.9991 10.9514 22.0223 11.1215 21.9758L11.1699 21.9526C11.2185 21.9526 11.2428 21.9293 11.2914 21.9061L21.5872 17.0225C21.8301 16.9062 22 16.6737 22 16.3947L22 5.58118L22 5.55792C21.9757 5.51141 21.9757 5.48816 21.9757 5.44165Z" fill="#36383F" fill-opacity="1.000000" fill-rule="nonzero"/>
</svg>
