<svg width="26.500000" height="19.047729" viewBox="0 0 26.5 19.0477" fill="none" xmlns="http://www.w3.org/2000/svg" xmlns:xlink="http://www.w3.org/1999/xlink">
	<desc>
			Created with Pixso.
	</desc>
	<defs/>
	<path id="Union" d="M11.5 3.4895C13.5 -1.0069 22.5 -0.758728 22.5 6.4931C22.5 12.8384 16 16.5005 11.5 18.5005C7 16.5005 0.5 12.8384 0.5 6.49304C0.5 -0.758728 9.5 -1.00696 11.5 3.4895Z" stroke="#F04716" stroke-opacity="1.000000" stroke-width="1.000000"/>
	<path id="Union" d="M21.5 4.00055C21.5 3.72443 21.2761 3.50055 21 3.50055L21 3.50055C20.7239 3.50055 20.5 3.72443 20.5 4.00055L20.5 6.50055L18 6.50055C17.7239 6.50055 17.5 6.72443 17.5 7.00055L17.5 7.00055C17.5 7.27667 17.7239 7.50055 18 7.50055L20.5 7.50055L20.5 10.0005C20.5 10.2767 20.7239 10.5005 21 10.5005L21 10.5005C21.2761 10.5005 21.5 10.2767 21.5 10.0005L21.5 7.50055L24 7.50055C24.2761 7.50055 24.5 7.27667 24.5 7.00055L24.5 7.00055C24.5 6.72443 24.2761 6.50055 24 6.50055L21.5 6.50055L21.5 4.00055Z" fill="#F04716" fill-opacity="1.000000" fill-rule="nonzero"/>
	<path id="Union" d="M18.5515 3.49304Q18.5 3.74146 18.5 4.00055L18.5 4.50055L18 4.50055Q17.7409 4.50055 17.4925 4.552Q17.2545 4.60132 17.0262 4.69781Q16.8046 4.79163 16.6082 4.92322Q16.4069 5.05811 16.2322 5.23279Q16.0576 5.40741 15.9227 5.6087Q15.7911 5.80511 15.6973 6.02679Q15.6008 6.25507 15.5515 6.49304Q15.5 6.74146 15.5 7.00055Q15.5 7.25964 15.5515 7.50806Q15.6008 7.74609 15.6973 7.9743Q15.7911 8.19598 15.9227 8.3924Q16.0576 8.59369 16.2322 8.76831Q16.4069 8.94299 16.6082 9.07788Q16.8046 9.20947 17.0262 9.30328Q17.2545 9.39978 17.4925 9.4491Q17.7409 9.50055 18 9.50055L18.5 9.50055L18.5 10.0005Q18.5 10.2596 18.5515 10.5081Q18.6008 10.7461 18.6973 10.9743Q18.7911 11.196 18.9227 11.3924Q19.0576 11.5937 19.2322 11.7683Q19.4069 11.943 19.6082 12.0779Q19.8046 12.2095 20.0262 12.3033Q20.2545 12.3998 20.4925 12.4491Q20.7409 12.5005 21 12.5005Q21.2591 12.5005 21.5075 12.4491Q21.7455 12.3998 21.9738 12.3033Q22.1954 12.2095 22.3918 12.0779Q22.5931 11.943 22.7678 11.7683Q22.9424 11.5937 23.0773 11.3924Q23.2089 11.196 23.3027 10.9743Q23.3992 10.7461 23.4485 10.5081Q23.5 10.2596 23.5 10.0005L23.5 9.50055L24 9.50055Q24.2591 9.50055 24.5075 9.4491Q24.7455 9.39978 24.9738 9.30328Q25.1954 9.20947 25.3918 9.07788Q25.5931 8.94299 25.7678 8.76831Q25.9424 8.59369 26.0773 8.3924Q26.2089 8.19598 26.3027 7.9743Q26.3992 7.74609 26.4485 7.50806Q26.5 7.25964 26.5 7.00055Q26.5 6.74146 26.4485 6.49304Q26.3992 6.25507 26.3027 6.02679Q26.2089 5.80511 26.0773 5.6087Q25.9424 5.40741 25.7678 5.23279Q25.5931 5.05811 25.3918 4.92322Q25.1954 4.79163 24.9738 4.69781Q24.7455 4.60132 24.5075 4.552Q24.2591 4.50055 24 4.50055L23.5 4.50055L23.5 4.00055Q23.5 3.74146 23.4485 3.49298Q23.3992 3.255 23.3027 3.02679Q23.2089 2.80511 23.0773 2.60876Q22.9424 2.40747 22.7678 2.23279Q22.5931 2.05811 22.3918 1.92322Q22.1954 1.79163 21.9738 1.69781Q21.7455 1.60132 21.5075 1.552Q21.2591 1.50055 21 1.50055Q20.7409 1.50055 20.4925 1.552Q20.2545 1.60132 20.0262 1.69781Q19.8046 1.79163 19.6082 1.92322Q19.4069 2.05811 19.2322 2.23279Q19.0576 2.40741 18.9227 2.6087Q18.7911 2.80511 18.6973 3.02679Q18.6008 3.25507 18.5515 3.49304ZM21.5 4.50055L21.5 4.00055C21.5 3.72443 21.2761 3.50055 21 3.50055C20.7239 3.50055 20.5 3.72443 20.5 4.00055L20.5 6.50055L18 6.50055C17.7239 6.50055 17.5 6.72443 17.5 7.00055C17.5 7.27667 17.7239 7.50055 18 7.50055L20.5 7.50055L20.5 10.0005C20.5 10.2767 20.7239 10.5005 21 10.5005C21.2761 10.5005 21.5 10.2767 21.5 10.0005L21.5 7.50055L24 7.50055C24.2761 7.50055 24.5 7.27667 24.5 7.00055C24.5 6.72443 24.2761 6.50055 24 6.50055L21.5 6.50055L21.5 4.50055Z" fill="#FFFFFF" fill-opacity="1.000000" fill-rule="evenodd"/>
</svg>
