<svg width="180.000000" height="42.922852" viewBox="0 0 180 42.9229" fill="none" xmlns="http://www.w3.org/2000/svg" xmlns:xlink="http://www.w3.org/1999/xlink">
	<desc>
			Created with Pixso.
	</desc>
	<defs/>
	<path id="Union" d="M0 14.2788L0 28.644C0 31.2114 1.36761 33.582 3.58521 34.8599L15.9331 41.9727C18.125 43.2354 20.8184 43.2402 23.0146 41.9849L35.4895 34.8555C37.7191 33.5815 39.0959 31.2036 39.0959 28.6279L39.0959 14.2954C39.0959 11.7192 37.7191 9.3418 35.4895 8.06738L23.0146 0.937988C20.8184 -0.316895 18.125 -0.3125 15.9331 0.950195L3.58521 8.06348C1.36761 9.34082 0 11.7119 0 14.2788ZM3.10284 28.644L3.10284 14.2788C3.10284 12.8281 3.87585 11.4878 5.12927 10.7656L7.91226 9.1626L7.91226 33.7603L5.12927 32.1572C3.87585 31.4351 3.10284 30.0952 3.10284 28.644ZM14.118 37.3354L17.4772 39.2705C18.7161 39.9839 20.2384 39.9868 21.4797 39.2773L32.6869 32.8726L13.9628 32.8726C13.106 32.8726 12.4114 32.1748 12.4114 31.3145C12.4114 30.4541 13.106 29.7568 13.9628 29.7568L35.8333 29.7568C35.938 29.395 35.9931 29.0151 35.9931 28.6279L35.9931 16.9829L13.9628 16.9829C13.106 16.9829 12.4114 16.2856 12.4114 15.4253C12.4114 14.5649 13.106 13.8672 13.9628 13.8672L35.9706 13.8672C35.8345 12.5796 35.0903 11.4243 33.9547 10.7754L21.4797 3.646C20.2384 2.93652 18.7161 2.93896 17.4772 3.65283L14.118 5.58789L14.118 12.6211C12.5757 12.6211 11.3254 13.8765 11.3254 15.4253C11.3254 16.9736 12.5757 18.229 14.118 18.229L14.118 28.5107C12.5757 28.5107 11.3254 29.7661 11.3254 31.3145C11.3254 32.8633 12.5757 34.1187 14.118 34.1187L14.118 37.3354Z" fill="#FFFFFF" fill-opacity="1.000000" fill-rule="evenodd"/>
	<path id="SPORTOVA" d="M53.1613 24.5801C51.9449 24.5801 50.7644 24.4297 49.6196 24.1294C48.4749 23.8291 47.5447 23.4282 46.8293 22.9277L48.2245 19.7939C48.897 20.2378 49.6769 20.5952 50.5641 20.8672Q51.8949 21.2749 53.1827 21.2749Q55.1404 21.2749 55.5318 20.4922Q55.6297 20.2964 55.6297 20.0518C55.6297 19.6226 55.3936 19.3076 54.9214 19.1074C54.4634 18.8926 53.7193 18.6709 52.6891 18.4419Q50.9933 18.0771 49.8557 17.6694C49.0973 17.3833 48.4462 16.9326 47.9025 16.3174Q47.8488 16.2568 47.7986 16.1929L47.7986 16.1929Q47.0868 15.2915 47.0868 13.8276Q47.0868 13.0083 47.3543 12.2881L47.3543 12.2881Q47.5351 11.8013 47.8381 11.3599Q48.5893 10.2437 50.0704 9.6001Q51.5729 8.95605 53.7408 8.95605Q54.5271 8.95605 55.3013 9.05273L55.3014 9.05273Q55.9854 9.13818 56.66 9.29932C57.6187 9.51416 58.463 9.83594 59.1928 10.2651L57.8834 13.4199Q55.737 12.2612 53.7193 12.2612Q52.4529 12.2612 51.8734 12.6475C51.487 12.8906 51.2939 13.2124 51.2939 13.6133Q51.2939 13.8062 51.3647 13.9683Q51.5145 14.3105 51.9807 14.5146C52.4386 14.7148 53.1756 14.9224 54.1916 15.1372C55.3363 15.3804 56.2808 15.645 57.0249 15.9312C57.7833 16.2031 58.4344 16.6465 58.9781 17.2617Q59.0521 17.3413 59.1196 17.4263Q59.8152 18.3018 59.8152 19.73C59.8152 20.6313 59.5648 21.4468 59.064 22.1763Q58.3127 23.271 56.8102 23.936Q55.3077 24.5801 53.1613 24.5801ZM86.8983 24.5801C85.3099 24.5801 83.879 24.2437 82.6054 23.5713Q81.4964 22.979 80.6612 22.1206L80.6611 22.1206Q80.0738 21.5166 79.6219 20.7812C78.9064 19.5938 78.5486 18.2559 78.5486 16.7681C78.5486 15.2803 78.9064 13.9424 79.6219 12.7549Q80.0739 12.019 80.6612 11.4155Q81.4964 10.5571 82.6054 9.96484C83.879 9.29248 85.3099 8.95605 86.8983 8.95605C88.4867 8.95605 89.9105 9.29248 91.1697 9.96484Q92.3766 10.6021 93.2494 11.5479L93.2495 11.5479Q93.7581 12.0986 94.1533 12.7549C94.8831 13.9424 95.248 15.2803 95.248 16.7681C95.248 18.2559 94.8831 19.5938 94.1533 20.7812Q93.7581 21.4375 93.2494 21.9883Q92.3766 22.9341 91.1697 23.5713C89.9105 24.2437 88.4867 24.5801 86.8983 24.5801ZM136.721 24.5801C135.133 24.5801 133.702 24.2437 132.428 23.5713C131.169 22.8989 130.174 21.9688 129.445 20.7812C128.729 19.5938 128.371 18.2559 128.371 16.7681C128.371 15.2803 128.729 13.9424 129.445 12.7549C130.174 11.5674 131.169 10.6372 132.428 9.96484Q132.603 9.87207 132.782 9.78809L132.787 9.78613Q134.56 8.95605 136.721 8.95605C138.309 8.95605 139.733 9.29248 140.992 9.96484C142.266 10.6372 143.26 11.5674 143.976 12.7549C144.706 13.9424 145.071 15.2803 145.071 16.7681C145.071 18.2559 144.706 19.5938 143.976 20.7812C143.26 21.9688 142.266 22.8989 140.992 23.5713C139.733 24.2437 138.309 24.5801 136.721 24.5801ZM69.5056 9.25635Q71.5447 9.25635 73.0472 9.94336C74.0489 10.3867 74.8216 11.0308 75.3654 11.875C75.9091 12.7046 76.181 13.6846 76.181 14.8149C76.181 15.9453 75.9091 16.9253 75.3654 17.7554C74.8216 18.585 74.0489 19.229 73.0472 19.687Q71.5447 20.3521 69.5056 20.3521L66.8869 20.3521L66.8869 24.2798L62.637 24.2798L62.637 9.25635L69.5056 9.25635ZM104.901 20.2876L102.582 20.2876L102.582 24.2798L98.3325 24.2798L98.3325 9.25635L105.201 9.25635C106.561 9.25635 107.741 9.48535 108.743 9.94336C109.744 10.3867 110.517 11.0308 111.061 11.875C111.605 12.7046 111.877 13.6846 111.877 14.8149C111.877 15.9023 111.619 16.854 111.104 17.6694C110.603 18.4707 109.88 19.1001 108.936 19.5581L112.177 24.2798L107.627 24.2798L104.901 20.2876ZM118.068 12.626L113.454 12.626L113.454 9.25635L126.912 9.25635L126.912 12.626L122.318 12.626L122.318 24.2798L118.068 24.2798L118.068 12.626ZM162.871 9.25635L156.432 24.2798L152.246 24.2798L145.828 9.25635L150.421 9.25635L154.5 19.043L158.664 9.25635L162.871 9.25635ZM174.152 21.3608L167.798 21.3608L166.618 24.2798L162.282 24.2798L168.914 9.25635L173.1 9.25635L179.754 24.2798L175.332 24.2798L174.152 21.3608ZM86.8983 21.0605C87.6567 21.0605 88.3436 20.8813 88.9589 20.5239C89.5742 20.166 90.0607 19.6655 90.4185 19.0215C90.7762 18.3633 90.9551 17.6123 90.9551 16.7681C90.9551 15.9238 90.7762 15.1797 90.4185 14.5361C90.0607 13.8779 89.5742 13.3701 88.9589 13.0122Q88.7108 12.8682 88.4472 12.7627Q87.7301 12.4756 86.8983 12.4756C86.1399 12.4756 85.4531 12.6548 84.8377 13.0122C84.2224 13.3701 83.7359 13.8779 83.3781 14.5361C83.0204 15.1797 82.8416 15.9238 82.8416 16.7681C82.8416 17.6123 83.0204 18.3633 83.3781 19.0215C83.7359 19.6655 84.2224 20.166 84.8377 20.5239C85.4531 20.8813 86.1399 21.0605 86.8983 21.0605ZM136.721 21.0605C137.479 21.0605 138.166 20.8813 138.782 20.5239C139.397 20.166 139.883 19.6655 140.241 19.0215C140.599 18.3633 140.778 17.6123 140.778 16.7681C140.778 15.9238 140.599 15.1797 140.241 14.5361C139.883 13.8779 139.397 13.3701 138.782 13.0122C138.166 12.6548 137.479 12.4756 136.721 12.4756C135.963 12.4756 135.276 12.6548 134.66 13.0122C134.045 13.3701 133.559 13.8779 133.201 14.5361C132.843 15.1797 132.664 15.9238 132.664 16.7681C132.664 17.6123 132.843 18.3633 133.201 19.0215C133.559 19.6655 134.045 20.166 134.66 20.5239C135.276 20.8813 135.963 21.0605 136.721 21.0605ZM69.248 17.0039C70.1209 17.0039 70.7791 16.8184 71.2227 16.4463C71.6664 16.0601 71.8882 15.5161 71.8882 14.8149C71.8882 14.1138 71.6664 13.5703 71.2227 13.1841C70.7791 12.7979 70.1209 12.6045 69.248 12.6045L66.8869 12.6045L66.8869 17.0039L69.248 17.0039ZM107.584 14.8149C107.584 14.1138 107.362 13.5703 106.918 13.1841C106.475 12.7979 105.816 12.6045 104.944 12.6045L102.582 12.6045L102.582 17.0039L104.944 17.0039C105.816 17.0039 106.475 16.8184 106.918 16.4463C107.362 16.0601 107.584 15.5161 107.584 14.8149ZM172.907 18.2275L170.975 13.4199L169.043 18.2275L172.907 18.2275Z" fill="#FFFFFF" fill-opacity="1.000000" fill-rule="evenodd"/>
	<path id="спортивные комплексы" d="M49.5753 34.1221C49.1595 34.1221 48.7836 34.0303 48.4478 33.8462C48.1159 33.6626 47.854 33.4087 47.6621 33.0845Q47.5906 32.96 47.5373 32.8281Q47.3802 32.4395 47.3802 31.9873Q47.3802 31.5186 47.5491 31.1216Q47.5984 31.0059 47.6621 30.896Q47.798 30.6641 47.9819 30.48L47.9819 30.48Q48.1877 30.2739 48.4538 30.1284Q48.541 30.0806 48.6318 30.041Q49.0655 29.8525 49.5813 29.8525Q50.0491 29.8525 50.4449 30.0083Q50.7273 30.1196 50.9486 30.3042L50.9486 30.3042Q51.0375 30.3784 51.1166 30.4644L50.8347 30.7461Q50.6455 30.5547 50.4182 30.4365L50.4182 30.4365Q50.0545 30.2485 49.5933 30.2485Q49.2219 30.2485 48.9005 30.375L48.9005 30.375Q48.7912 30.4185 48.6877 30.4761Q48.4597 30.6035 48.286 30.7832L48.286 30.7832Q48.1491 30.9253 48.0459 31.0996Q47.9939 31.1904 47.9537 31.2856Q47.818 31.6079 47.818 31.9873Q47.818 32.3667 47.9537 32.689L47.9537 32.689Q47.9939 32.7847 48.0459 32.875Q48.1491 33.0493 48.286 33.1914L48.286 33.1914Q48.4597 33.3711 48.6877 33.4985Q48.7912 33.5562 48.9005 33.5996L48.9005 33.5996Q49.2219 33.7266 49.5933 33.7266Q50.0652 33.7266 50.4319 33.5298Q50.6523 33.4116 50.8347 33.2227L51.1166 33.5044C50.9327 33.7046 50.7068 33.8584 50.4389 33.9663C50.175 34.0703 49.8871 34.1221 49.5753 34.1221ZM63.3814 34.1221C62.9656 34.1221 62.5878 34.0303 62.2479 33.8462C61.912 33.6582 61.6482 33.4023 61.4562 33.0786Q61.3925 32.9688 61.3433 32.853Q61.1744 32.4561 61.1744 31.9873C61.1744 31.5835 61.2683 31.2197 61.4562 30.896Q61.5826 30.6826 61.7505 30.5103L61.7505 30.5103Q61.9652 30.2891 62.2479 30.1343Q62.3656 30.0693 62.4894 30.019Q62.9017 29.8525 63.3814 29.8525C63.7972 29.8525 64.1711 29.9443 64.5029 30.1284C64.8388 30.3125 65.1027 30.5684 65.2946 30.896Q65.3675 31.019 65.4219 31.1494Q65.5825 31.5352 65.5825 31.9873Q65.5825 32.4233 65.4333 32.8003Q65.3752 32.9468 65.2946 33.0845C65.1027 33.4087 64.8388 33.6626 64.5029 33.8462C64.1711 34.0303 63.7972 34.1221 63.3814 34.1221ZM128.663 34.1221C128.247 34.1221 127.869 34.0303 127.53 33.8462C127.194 33.6582 126.93 33.4023 126.738 33.0786C126.55 32.7549 126.456 32.3911 126.456 31.9873C126.456 31.5835 126.55 31.2197 126.738 30.896Q126.864 30.6826 127.032 30.5103Q127.247 30.2891 127.53 30.1343C127.869 29.9463 128.247 29.8525 128.663 29.8525C129.079 29.8525 129.453 29.9443 129.785 30.1284C130.12 30.3125 130.384 30.5684 130.576 30.896Q130.649 31.019 130.703 31.1494Q130.864 31.5352 130.864 31.9873Q130.864 32.4233 130.715 32.8003L130.715 32.8003Q130.657 32.9473 130.576 33.0845C130.384 33.4087 130.12 33.6626 129.785 33.8462C129.453 34.0303 129.079 34.1221 128.663 34.1221ZM170.813 34.1221C170.397 34.1221 170.021 34.0303 169.686 33.8462C169.354 33.6626 169.092 33.4087 168.9 33.0845C168.712 32.7568 168.618 32.3911 168.618 31.9873C168.618 31.5835 168.712 31.2197 168.9 30.896C169.092 30.5684 169.356 30.3125 169.692 30.1284C170.027 29.9443 170.403 29.8525 170.819 29.8525C171.131 29.8525 171.419 29.9043 171.683 30.0083C171.947 30.1123 172.17 30.2642 172.354 30.4644L172.073 30.7461C171.745 30.4141 171.331 30.2485 170.831 30.2485C170.499 30.2485 170.197 30.3242 169.925 30.4761C169.654 30.6279 169.44 30.8359 169.284 31.0996C169.132 31.3638 169.056 31.6597 169.056 31.9873C169.056 32.3149 169.132 32.6108 169.284 32.875C169.44 33.1387 169.654 33.3467 169.925 33.4985C170.197 33.6504 170.499 33.7266 170.831 33.7266C171.335 33.7266 171.749 33.5586 172.073 33.2227L172.354 33.5044C172.17 33.7046 171.945 33.8584 171.677 33.9663C171.413 34.0703 171.125 34.1221 170.813 34.1221ZM57.8446 29.8887L57.8446 34.0859L57.4068 34.0859L57.4068 30.2725L54.75 30.2725L54.75 34.0859L54.3122 34.0859L54.3122 29.8887L57.8446 29.8887ZM70.4919 29.8887Q71.2955 29.8887 71.7513 30.2725Q71.9039 30.4009 72.0054 30.5615Q72.2071 30.8809 72.2071 31.3276C72.2071 31.7754 72.0552 32.1274 71.7513 32.3833Q71.2955 32.7607 70.4919 32.7607L69.3643 32.7607L69.3643 34.0859L68.9205 34.0859L68.9205 29.8887L70.4919 29.8887ZM78.0052 30.2725L76.5298 30.2725L76.5298 34.0859L76.092 34.0859L76.092 30.2725L74.6166 30.2725L74.6166 29.8887L78.0052 29.8887L78.0052 30.2725ZM81.0632 29.8887L81.501 29.8887L81.501 33.3667L84.1879 29.8887L84.5897 29.8887L84.5897 34.0859L84.1519 34.0859L84.1519 30.6143L81.465 34.0859L81.0632 34.0859L81.0632 29.8887ZM90.7743 31.9214C91.0662 31.9814 91.2881 32.0991 91.44 32.2754C91.592 32.4473 91.6679 32.6729 91.6679 32.9526Q91.6679 33.3008 91.5092 33.5464Q91.4192 33.686 91.2781 33.7925C91.0222 33.9883 90.6444 34.0859 90.1446 34.0859L88.2854 34.0859L88.2854 29.8887L90.0306 29.8887C90.4785 29.8887 90.8283 29.9805 91.0802 30.1646C91.3321 30.3481 91.458 30.6143 91.458 30.9619C91.458 31.1978 91.3981 31.3975 91.2781 31.5615C91.1582 31.7217 90.9902 31.8413 90.7743 31.9214ZM98.5651 29.8887L98.5651 34.0859L98.1273 34.0859L98.1273 32.1494L95.5004 32.1494L95.5004 34.0859L95.0566 34.0859L95.0566 29.8887L95.5004 29.8887L95.5004 31.7593L98.1273 31.7593L98.1273 29.8887L98.5651 29.8887ZM104.018 31.3877C104.514 31.3877 104.892 31.4995 105.152 31.7236C105.416 31.9473 105.548 32.2754 105.548 32.707C105.548 33.1587 105.408 33.5024 105.128 33.7383C104.852 33.9702 104.452 34.0859 103.929 34.0859L102.261 34.0859L102.261 29.8887L102.699 29.8887L102.699 31.3877L104.018 31.3877ZM106.274 29.8887L106.711 29.8887L106.711 34.0859L106.274 34.0859L106.274 29.8887ZM113.372 33.7021L113.372 34.0859L110.403 34.0859L110.403 29.8887L113.282 29.8887L113.282 30.2725L110.847 30.2725L110.847 31.7656L113.018 31.7656L113.018 32.1431L110.847 32.1431L110.847 33.7021L113.372 33.7021ZM121.875 32.1611L120.916 32.1611L120.916 34.0859L120.484 34.0859L120.484 29.8887L120.916 29.8887L120.916 31.7715L121.875 31.7715L123.297 29.8887L123.777 29.8887L122.217 31.9272L123.867 34.0859L123.357 34.0859L121.875 32.1611ZM138.562 29.8887L138.562 34.0859L138.136 34.0859L138.136 30.728L136.487 33.5522L136.277 33.5522L134.628 30.7461L134.628 34.0859L134.202 34.0859L134.202 29.8887L134.568 29.8887L136.391 33.001L138.196 29.8887L138.562 29.8887ZM145.789 29.8887L145.789 34.0859L145.351 34.0859L145.351 30.2725L142.694 30.2725L142.694 34.0859L142.256 34.0859L142.256 29.8887L145.789 29.8887ZM152.712 29.8887L152.712 34.0859L152.274 34.0859L152.274 30.2725L150.247 30.2725L150.199 31.6753C150.179 32.2554 150.131 32.7231 150.055 33.0786C149.983 33.4307 149.871 33.6943 149.72 33.8701Q149.637 33.9639 149.534 34.0234L149.534 34.0234Q149.354 34.1279 149.114 34.1279C149.006 34.1279 148.894 34.1143 148.778 34.0859L148.814 33.6904C148.882 33.7065 148.948 33.7144 149.012 33.7144Q149.142 33.7144 149.248 33.6631Q149.356 33.6108 149.438 33.5044C149.55 33.3647 149.634 33.1484 149.69 32.8569C149.746 32.561 149.784 32.1714 149.804 31.6875L149.863 29.8887L152.712 29.8887ZM159.376 33.7021L159.376 34.0859L156.408 34.0859L156.408 29.8887L159.286 29.8887L159.286 30.2725L156.851 30.2725L156.851 31.7656L159.022 31.7656L159.022 32.1431L156.851 32.1431L156.851 33.7021L159.376 33.7021ZM164.031 32.1611L163.072 32.1611L163.072 34.0859L162.64 34.0859L162.64 29.8887L163.072 29.8887L163.072 31.7715L164.031 31.7715L165.453 29.8887L165.933 29.8887L164.373 31.9272L166.023 34.0859L165.513 34.0859L164.031 32.1611ZM177.307 31.3877Q178.051 31.3877 178.441 31.7236Q178.522 31.792 178.586 31.874L178.586 31.874Q178.836 32.1919 178.836 32.707Q178.836 33.2358 178.581 33.5674Q178.509 33.6606 178.417 33.7383C178.141 33.9702 177.741 34.0859 177.217 34.0859L175.55 34.0859L175.55 29.8887L175.988 29.8887L175.988 31.3877L177.307 31.3877ZM179.562 29.8887L180 29.8887L180 34.0859L179.562 34.0859L179.562 29.8887ZM88.7232 31.7896L90.0067 31.7896C90.3305 31.7896 90.5784 31.7236 90.7503 31.5918C90.9263 31.4595 91.0142 31.2676 91.0142 31.0161C91.0142 30.7642 90.9263 30.5723 90.7503 30.4404C90.5784 30.3081 90.3305 30.2422 90.0067 30.2422L88.7232 30.2422L88.7232 31.7896ZM63.3814 33.7266C63.7133 33.7266 64.0132 33.6523 64.281 33.5044C64.5489 33.3525 64.7588 33.1445 64.9108 32.8809C65.0627 32.6128 65.1387 32.3149 65.1387 31.9873C65.1387 31.6597 65.0627 31.3638 64.9108 31.0996C64.7588 30.832 64.5489 30.624 64.281 30.4761C64.0132 30.3242 63.7133 30.2485 63.3814 30.2485C63.0496 30.2485 62.7477 30.3242 62.4758 30.4761C62.2079 30.624 61.996 30.832 61.8401 31.0996Q61.788 31.1904 61.7479 31.2856Q61.6122 31.6079 61.6122 31.9873C61.6122 32.3149 61.6881 32.6128 61.8401 32.8809C61.996 33.1445 62.2079 33.3525 62.4758 33.5044C62.7477 33.6523 63.0496 33.7266 63.3814 33.7266ZM128.663 33.7266C128.995 33.7266 129.295 33.6523 129.563 33.5044Q129.78 33.3813 129.947 33.2085Q130.088 33.0625 130.192 32.8809C130.344 32.6128 130.42 32.3149 130.42 31.9873C130.42 31.6597 130.344 31.3638 130.192 31.0996Q130.074 30.8906 129.908 30.73Q129.755 30.5825 129.563 30.4761C129.295 30.3242 128.995 30.2485 128.663 30.2485Q128.292 30.2485 127.97 30.375L127.97 30.3755Q127.861 30.4185 127.757 30.4761C127.49 30.624 127.278 30.832 127.122 31.0996C126.97 31.3638 126.894 31.6597 126.894 31.9873C126.894 32.3149 126.97 32.6128 127.122 32.8809C127.278 33.1445 127.49 33.3525 127.757 33.5044Q127.847 33.5532 127.94 33.5908L127.94 33.5908Q128.274 33.7266 128.663 33.7266ZM70.4799 32.3711Q71.1036 32.3711 71.4335 32.1011C71.6534 31.9175 71.7633 31.6597 71.7633 31.3276C71.7633 30.9878 71.6534 30.728 71.4335 30.5483Q71.1036 30.2725 70.4799 30.2725L69.3643 30.2725L69.3643 32.3711L70.4799 32.3711ZM103.917 33.7324C104.304 33.7324 104.598 33.6465 104.798 33.4746C105.002 33.3027 105.104 33.0488 105.104 32.7129Q105.104 32.3286 104.916 32.0972Q104.631 31.7476 103.917 31.7476L102.699 31.7476L102.699 33.7324L103.917 33.7324ZM177.205 33.7324C177.593 33.7324 177.887 33.6465 178.087 33.4746C178.291 33.3027 178.393 33.0488 178.393 32.7129Q178.393 32.3286 178.205 32.0972Q177.92 31.7476 177.205 31.7476L175.988 31.7476L175.988 33.7324L177.205 33.7324ZM90.1446 33.7324Q90.8422 33.7324 91.0915 33.3979Q91.2301 33.2119 91.2301 32.9229Q91.2301 32.6479 91.0993 32.4688Q90.8533 32.1313 90.1446 32.1313L88.7232 32.1313L88.7232 33.7324L90.1446 33.7324Z" fill="#FFFFFF" fill-opacity="1.000000" fill-rule="evenodd"/>
</svg>
