<svg xmlns="http://www.w3.org/2000/svg" width="16" height="16" viewBox="0 0 16 16" fill="none">
  <path
    d="M3 4.5C3 4.22386 3.22386 4 3.5 4H12.5C12.7761 4 13 4.22386 13 4.5C13 4.77614 12.7761 5 12.5 5H3.5C3.22386 5 3 4.77614 3 4.5Z"
    fill="white" />
  <path
    d="M3 7.5C3 7.22386 3.22386 7 3.5 7H12.5C12.7761 7 13 7.22386 13 7.5C13 7.77614 12.7761 8 12.5 8H3.5C3.22386 8 3 7.77614 3 7.5Z"
    fill="white" />
  <path
    d="M3 10.5C3 10.2239 3.22386 10 3.5 10H12.5C12.7761 10 13 10.2239 13 10.5C13 10.7761 12.7761 11 12.5 11H3.5C3.22386 11 3 10.7761 3 10.5Z"
    fill="white" />
</svg>