<svg width="26.000000" height="20.000000" viewBox="0 0 26 20" fill="none" xmlns="http://www.w3.org/2000/svg"
	xmlns:xlink="http://www.w3.org/1999/xlink">
	<desc>
		Created with Pixso.
	</desc>
	<defs />
	<rect id="Rectangle 59" x="0.500000" y="11.500000" rx="2.500000" width="5.000000" height="8.000000" stroke="stroke"
		stroke-opacity="1.000000" stroke-width="1.000000" />
	<rect id="Rectangle 60" x="8.500000" y="0.500000" rx="2.500000" width="5.000000" height="19.000000" stroke="stroke"
		stroke-opacity="1.000000" stroke-width="1.000000" />
	<rect id="Rectangle 61" x="16.500000" y="6.500000" rx="2.500000" width="5.000000" height="13.000000" stroke="stroke"
		stroke-opacity="1.000000" stroke-width="1.000000" />
	<path id="Union"
		d="M21 5.5C21 5.22388 20.7761 5 20.5 5L20.5 5C20.2239 5 20 5.22388 20 5.5L20 8L17.5 8C17.2239 8 17 8.22388 17 8.5L17 8.5C17 8.77612 17.2239 9 17.5 9L20 9L20 11.5C20 11.7761 20.2239 12 20.5 12L20.5 12C20.7761 12 21 11.7761 21 11.5L21 9L23.5 9C23.7761 9 24 8.77612 24 8.5L24 8.5C24 8.22388 23.7761 8 23.5 8L21 8L21 5.5Z"
		fill="#fff" stroke="#fff" fill-opacity="1.000000" fill-rule="nonzero" />
	<path id="Union"
		d="M18.0515 4.99249Q18 5.24091 18 5.5L18 6L17.5 6Q17.2409 6 16.9925 6.05145Q16.7545 6.10077 16.5262 6.19727Q16.3046 6.29108 16.1082 6.42267Q15.9069 6.55756 15.7322 6.73224Q15.5576 6.90686 15.4227 7.10815Q15.2911 7.30457 15.1973 7.52625Q15.1008 7.75452 15.0515 7.99249Q15 8.24091 15 8.5Q15 8.75909 15.0515 9.00751Q15.1008 9.24554 15.1973 9.47375Q15.2911 9.69543 15.4227 9.89185Q15.5576 10.0931 15.7322 10.2678Q15.9069 10.4424 16.1082 10.5773Q16.3046 10.7089 16.5262 10.8027Q16.7545 10.8992 16.9925 10.9485Q17.2409 11 17.5 11L18 11L18 11.5Q18 11.7591 18.0515 12.0075Q18.1008 12.2455 18.1973 12.4738Q18.2911 12.6954 18.4227 12.8918Q18.5576 13.0931 18.7322 13.2678Q18.9069 13.4424 19.1082 13.5773Q19.3046 13.7089 19.5262 13.8027Q19.7545 13.8992 19.9925 13.9485Q20.2409 14 20.5 14Q20.7591 14 21.0075 13.9485Q21.2455 13.8992 21.4738 13.8027Q21.6954 13.7089 21.8918 13.5773Q22.0931 13.4424 22.2678 13.2678Q22.4424 13.0931 22.5773 12.8918Q22.7089 12.6954 22.8027 12.4738Q22.8992 12.2455 22.9485 12.0075Q23 11.7591 23 11.5L23 11L23.5 11Q23.7591 11 24.0075 10.9485Q24.2455 10.8992 24.4738 10.8027Q24.6954 10.7089 24.8918 10.5773Q25.0931 10.4424 25.2678 10.2678Q25.4424 10.0931 25.5773 9.89185Q25.7089 9.69543 25.8027 9.47375Q25.8992 9.24554 25.9485 9.00751Q26 8.75909 26 8.5Q26 8.24091 25.9485 7.99249Q25.8992 7.75452 25.8027 7.52625Q25.7089 7.30457 25.5773 7.10815Q25.4424 6.90686 25.2678 6.73224Q25.0931 6.55756 24.8918 6.42267Q24.6954 6.29108 24.4738 6.19727Q24.2455 6.10077 24.0075 6.05145Q23.7591 6 23.5 6L23 6L23 5.5Q23 5.24091 22.9485 4.99243Q22.8992 4.75446 22.8027 4.52625Q22.7089 4.30457 22.5773 4.10822Q22.4424 3.90692 22.2678 3.73224Q22.0931 3.55756 21.8918 3.42267Q21.6954 3.29108 21.4738 3.19727Q21.2455 3.10077 21.0075 3.05145Q20.7591 3 20.5 3Q20.2409 3 19.9925 3.05145Q19.7545 3.10077 19.5262 3.19727Q19.3046 3.29108 19.1082 3.42267Q18.9069 3.55756 18.7322 3.73224Q18.5576 3.90686 18.4227 4.10815Q18.2911 4.30457 18.1973 4.52625Q18.1008 4.75452 18.0515 4.99249ZM21 6L21 5.5C21 5.22388 20.7761 5 20.5 5C20.2239 5 20 5.22388 20 5.5L20 8L17.5 8C17.2239 8 17 8.22388 17 8.5C17 8.77612 17.2239 9 17.5 9L20 9L20 11.5C20 11.7761 20.2239 12 20.5 12C20.7761 12 21 11.7761 21 11.5L21 9L23.5 9C23.7761 9 24 8.77612 24 8.5C24 8.22388 23.7761 8 23.5 8L21 8L21 6Z"
		fill="fill" stroke="stroke" fill-opacity="1.000000" fill-rule="evenodd" />
</svg>